<svg width="80" height="80" fill="none" xmlns="http://www.w3.org/2000/svg"><path d="M32.225 40.03l15.55-15.6M26.643 55.925l-5.046 11.577c-.357.818.455 1.658 1.285 1.33l5.91-2.341a1 1 0 011.293.55l2.492 6.074c.337.821 1.496.83 1.845.013l4.723-11.07h1.592l4.724 11.07c.348.816 1.508.808 1.844-.013l2.492-6.074a1 1 0 011.294-.55L57 68.83c.829.33 1.64-.51 1.284-1.329L53.24 55.925M44.526 36.13c1.76-.05 3.289 1.494 3.25 3.25.037 1.712-1.555 3.233-3.25 3.2-1.73.027-3.285-1.453-3.25-3.2-.052-1.79 1.46-3.302 3.25-3.25zm-5.8-11.05c.036 1.728-1.524 3.284-3.25 3.25-1.782.013-3.312-1.444-3.25-3.25-.038-1.819 1.454-3.222 3.25-3.2 1.731-.049 3.286 1.46 3.25 3.2zM51.94 10.872l4.66.648c2.174.363 3.2 1.316 3.479 3.539l.707 4.658c.452 2.644 1.38 4.194 2.949 6.369l2.182 3.066c1.435 1.867 1.384 3.262 0 5.13l-2.772 3.893c-1.463 2.02-2.014 3.722-2.418 6.192l-.648 4.069c-.283 2.188-1.317 3.236-3.48 3.597l-4.128.59c-3.323.554-4.828 1.473-7.548 3.538-2.162 1.612-3.48 2.496-3.951 2.654-.511.117-1.061.117-1.651 0-.63-.158-1.258-.492-1.887-1.003l-3.48-2.477c-2.239-1.679-3.771-2.26-6.545-2.712l-4.128-.472c-2.195-.549-3.108-1.494-3.538-3.715l-.59-4.07c-.426-2.982-1.17-4.63-2.949-7.076l-2.122-3.007c-1.385-1.869-1.436-3.264 0-5.13l2.535-3.48c1.408-2.027 2.127-3.562 2.477-6.015l.649-4.6c.418-2.232 1.295-3.137 3.538-3.538l4.128-.648c2.753-.338 4.228-1.037 6.428-2.654l3.597-2.536c1.81-1.323 3.215-1.366 5.012 0L45.81 8.1c2.065 1.483 3.604 2.383 6.133 2.772z" stroke="#FF7800" stroke-width="1.5" stroke-linecap="round" stroke-linejoin="round"/></svg>